<?xml version="1.0" encoding="UTF-8"?><svg xmlns="http://www.w3.org/2000/svg" viewBox="0 0 670.32 413.04"><defs><style>.cls-1,.cls-2,.cls-3{stroke:#231f20;}.cls-1,.cls-2,.cls-3,.cls-4{fill:none;stroke-miterlimit:10;}.cls-5{fill:#fff;}.cls-6{fill:#c2c1c0;}.cls-7{fill:#8c8c8c;}.cls-8{fill:#020202;}.cls-2{stroke-width:4px;}.cls-2,.cls-3,.cls-4{stroke-linecap:round;}.cls-9{fill:#070808;}.cls-10{fill:#eaeaea;}.cls-11{fill:#fdfdfe;}.cls-12{fill:#050606;}.cls-4{stroke:#000;stroke-width:3px;}.cls-13{fill:snow;}</style></defs><g id="Ebene_10"><polygon class="cls-10" points="465.48 40.97 432.98 186.37 437.79 274.27 352.54 358.47 194.48 360.77 117.53 273.53 147.29 167.17 117.53 43.47 243.98 120.47 331.39 129.68 465.48 40.97"/><polygon class="cls-6" points="451.39 28.97 437.79 188.73 444.49 244.62 371.69 328.05 224.57 384.09 132.88 307.52 127.93 196.85 160.3 120.47 146.69 25.47 230.98 134.04 331.67 140.43 451.39 28.97"/><path class="cls-7" d="m120.7,197.06l40.56-55.34L123.97,19.97l119.22,96.21,88.48,24.24,128.33-108.25c.5,2-30.56,156.76-30.56,156.76l8.59,73.01-68.09,81.12-179.5,29.97-53.38-80.19"/></g><g id="HG"><polygon class="cls-11" points="406.9 132.72 259.57 132.72 166.9 132.72 166.13 264.64 185.98 351.14 382.9 351.39 406.9 257.39 406.9 132.72"/><line class="cls-11" x1="205.48" y1="350.97" x2="172.98" y2="285.47"/><polygon class="cls-11" points="151.48 51.97 125.98 64.47 166.48 199.47 265.48 150.47 151.48 51.97"/><polygon class="cls-11" points="440.29 57.16 459.04 75.38 403.61 202.12 331.7 138.22 440.29 57.16"/><polygon class="cls-9" points="262.98 351.47 187.3 327.82 173.98 263.39 175.32 186.14 188.48 176.47 125.98 64.47 165.98 197.8 166.13 264.22 185.4 351.55 262.98 351.47"/><polygon class="cls-9" points="440.29 57.16 357.98 139.18 339.45 132.53 440.29 57.16"/><polygon class="cls-9" points="320.11 351.31 387.77 332.39 382.94 351.39 320.11 351.31"/><path class="cls-9" d="m342.82,308.47c-.5,0-95.5,12.5-95.5,12.5l-9.67-17,15.33,8.5,89.83-4Z"/><polygon class="cls-9" points="327.29 310.47 321.82 319.14 317.98 311.64 318.99 311.56 320.82 314.81 323.96 310.91 327.29 310.47"/><polygon class="cls-9" points="316.04 311.89 310.73 330.84 306.12 313.08 306.94 313.14 310.32 323.68 312.71 312.32 316.04 311.89"/><polygon class="cls-9" points="302.89 313.58 298.21 322.56 294.34 314.68 295.09 314.56 297.49 318.7 299.55 314.02 302.89 313.58"/><polygon class="cls-9" points="289.88 315.27 284.65 322.7 280.92 316.55 281.75 316.44 284.02 319.68 286.94 315.44 289.88 315.27"/><polygon class="cls-9" points="276.25 317.05 271.42 331.97 267.55 318.31 268.03 318.25 271.07 326.03 272.92 317.48 276.25 317.05"/><polygon class="cls-9" points="260.4 319.14 255.59 328.05 251.71 320.18 252.43 320.3 254.71 323.99 257.07 319.58 260.4 319.14"/><polygon class="cls-9" points="286.51 284.14 284.65 311.06 291.61 311.06 290.53 284.14 286.51 284.14"/></g><g id="Auge_R"><g><path d="m355.74,226.94l-46.04-25.71c-.71,9.87,1.48,20.05,6.96,29.18,3.12,5.2,7.03,9.62,11.49,13.2l27.58-16.67Z"/><path d="m338.49,212.51l-1.4-52.28c-1.12.56-2.23,1.15-3.32,1.81-13.13,7.87-21.32,20.84-23.57,34.86l28.28,15.61Z"/><path d="m342.2,190.75l44.85-27.44c-13.17-8.77-30.08-10.92-45.32-5.12l.47,32.56Z"/><path d="m376.73,219.16l-45.34,26.82c13.3,9.03,30.51,11.26,45.96,5.27l-.62-32.09Z"/><path d="m363.06,182.76l46.06,25.32c.66-9.79-1.55-19.88-6.98-28.94-3.07-5.12-6.92-9.49-11.3-13.05l-27.78,16.66Z"/><path d="m380.41,196.85l.67,52.79c1.34-.65,2.66-1.35,3.96-2.13,13.13-7.88,21.32-20.85,23.57-34.87l-28.2-15.79Z"/></g><circle cx="388.34" cy="160.02" r="1.25"/><circle cx="333.09" cy="158.46" r="1.25"/><circle cx="305.91" cy="203.5" r="1.25"/><circle cx="331.96" cy="249.37" r="1.25"/><circle cx="385.21" cy="250.23" r="1.25"/><circle cx="411.7" cy="206.26" r="1.25"/><polygon class="cls-8" points="359.98 224.57 352.54 220.27 352.54 188.52 359.98 184.22 367.43 188.52 367.43 220.27 359.98 224.57"/><polygon class="cls-5" points="364.39 206.91 359.99 209.46 355.58 206.92 355.57 201.84 359.97 199.29 364.38 201.82 364.39 206.91"/></g><g id="Auge_L"><g><path d="m285.5,208.85c0,1.37-1.74,2.67-1.82,4.02s1.49,2.87,1.33,4.21-2.05,2.44-2.29,3.77,1.13,3.02.81,4.33-2.33,2.17-2.73,3.46.76,3.14.28,4.4-2.57,1.87-3.13,3.11.37,3.2-.26,4.4-2.78,1.55-3.48,2.71-.01,3.22-.79,4.34-2.95,1.2-3.78,2.27-.4,3.2-1.3,4.21-3.07.84-4.03,1.8-.78,3.13-1.8,4.03-3.15.46-4.21,1.3-1.15,3.01-2.27,3.78-3.18.08-4.34.79-1.5,2.85-2.71,3.48-3.16-.3-4.4.26-1.84,2.65-3.11,3.13-3.1-.68-4.4-.28-2.14,2.4-3.46,2.73-2.99-1.06-4.33-.81-2.42,2.13-3.77,2.29-2.84-1.41-4.2-1.33-2.65,1.82-4.02,1.82-2.67-1.74-4.02-1.82-2.87,1.49-4.21,1.33-2.44-2.05-3.77-2.29-3.02,1.13-4.33.81-2.17-2.33-3.46-2.73-3.14.76-4.4.28-1.87-2.57-3.11-3.13-3.2.37-4.4-.26-1.55-2.78-2.71-3.48-3.22-.01-4.34-.79-1.2-2.95-2.27-3.78-3.2-.4-4.21-1.3-.84-3.07-1.8-4.03-3.13-.78-4.03-1.8-.46-3.15-1.3-4.21-3.01-1.15-3.78-2.27-.08-3.18-.79-4.34-2.85-1.5-3.48-2.71.3-3.16-.26-4.4-2.65-1.84-3.13-3.11.68-3.1.28-4.4-2.4-2.14-2.73-3.46,1.06-2.99.81-4.33-2.13-2.42-2.29-3.77,1.41-2.84,1.33-4.2-1.82-2.65-1.82-4.02,1.74-2.67,1.82-4.02-1.49-2.87-1.33-4.21,2.05-2.44,2.29-3.77-1.13-3.02-.81-4.33,2.33-2.17,2.73-3.46-.76-3.14-.28-4.4,2.57-1.87,3.13-3.11-.37-3.2.26-4.4,2.78-1.55,3.48-2.71.01-3.22.79-4.34,2.95-1.2,3.78-2.27.4-3.2,1.3-4.21,3.07-.84,4.03-1.8.78-3.13,1.8-4.03,3.15-.46,4.21-1.3,1.15-3.01,2.27-3.78,3.18-.08,4.34-.79,1.5-2.85,2.71-3.48,3.16.3,4.4-.26,1.84-2.65,3.11-3.13,3.1.68,4.4.28,2.14-2.4,3.46-2.73,2.99,1.06,4.33.81,2.42-2.13,3.77-2.29,2.84,1.41,4.2,1.33,2.65-1.82,4.02-1.82,2.67,1.74,4.02,1.82,2.87-1.49,4.21-1.33,2.44,2.05,3.77,2.29,3.02-1.13,4.33-.81,2.17,2.33,3.46,2.73,3.14-.76,4.4-.28,1.87,2.57,3.11,3.13,3.2-.37,4.4.26,1.55,2.78,2.71,3.48,3.22.01,4.34.79,1.2,2.95,2.27,3.78,3.2.4,4.21,1.3.84,3.07,1.8,4.03,3.13.78,4.03,1.8.46,3.15,1.3,4.21,3.01,1.15,3.78,2.27.08,3.18.79,4.34,2.85,1.5,3.48,2.71-.3,3.16.26,4.4,2.65,1.84,3.13,3.11-.68,3.1-.28,4.4,2.4,2.14,2.73,3.46-1.06,2.99-.81,4.33,2.13,2.42,2.29,3.77-1.41,2.84-1.33,4.2,1.82,2.65,1.82,4.02Z"/><path class="cls-1" d="m285.5,208.85c0,1.37-1.74,2.67-1.82,4.02s1.49,2.87,1.33,4.21-2.05,2.44-2.29,3.77,1.13,3.02.81,4.33-2.33,2.17-2.73,3.46.76,3.14.28,4.4-2.57,1.87-3.13,3.11.37,3.2-.26,4.4-2.78,1.55-3.48,2.71-.01,3.22-.79,4.34-2.95,1.2-3.78,2.27-.4,3.2-1.3,4.21-3.07.84-4.03,1.8-.78,3.13-1.8,4.03-3.15.46-4.21,1.3-1.15,3.01-2.27,3.78-3.18.08-4.34.79-1.5,2.85-2.71,3.48-3.16-.3-4.4.26-1.84,2.65-3.11,3.13-3.1-.68-4.4-.28-2.14,2.4-3.46,2.73-2.99-1.06-4.33-.81-2.42,2.13-3.77,2.29-2.84-1.41-4.2-1.33-2.65,1.82-4.02,1.82-2.67-1.74-4.02-1.82-2.87,1.49-4.21,1.33-2.44-2.05-3.77-2.29-3.02,1.13-4.33.81-2.17-2.33-3.46-2.73-3.14.76-4.4.28-1.87-2.57-3.11-3.13-3.2.37-4.4-.26-1.55-2.78-2.71-3.48-3.22-.01-4.34-.79-1.2-2.95-2.27-3.78-3.2-.4-4.21-1.3-.84-3.07-1.8-4.03-3.13-.78-4.03-1.8-.46-3.15-1.3-4.21-3.01-1.15-3.78-2.27-.08-3.18-.79-4.34-2.85-1.5-3.48-2.71.3-3.16-.26-4.4-2.65-1.84-3.13-3.11.68-3.1.28-4.4-2.4-2.14-2.73-3.46,1.06-2.99.81-4.33-2.13-2.42-2.29-3.77,1.41-2.84,1.33-4.2-1.82-2.65-1.82-4.02,1.74-2.67,1.82-4.02-1.49-2.87-1.33-4.21,2.05-2.44,2.29-3.77-1.13-3.02-.81-4.33,2.33-2.17,2.73-3.46-.76-3.14-.28-4.4,2.57-1.87,3.13-3.11-.37-3.2.26-4.4,2.78-1.55,3.48-2.71.01-3.22.79-4.34,2.95-1.2,3.78-2.27.4-3.2,1.3-4.21,3.07-.84,4.03-1.8.78-3.13,1.8-4.03,3.15-.46,4.21-1.3,1.15-3.01,2.27-3.78,3.18-.08,4.34-.79,1.5-2.85,2.71-3.48,3.16.3,4.4-.26,1.84-2.65,3.11-3.13,3.1.68,4.4.28,2.14-2.4,3.46-2.73,2.99,1.06,4.33.81,2.42-2.13,3.77-2.29,2.84,1.41,4.2,1.33,2.65-1.82,4.02-1.82,2.67,1.74,4.02,1.82,2.87-1.49,4.21-1.33,2.44,2.05,3.77,2.29,3.02-1.13,4.33-.81,2.17,2.33,3.46,2.73,3.14-.76,4.4-.28,1.87,2.57,3.11,3.13,3.2-.37,4.4.26,1.55,2.78,2.71,3.48,3.22.01,4.34.79,1.2,2.95,2.27,3.78,3.2.4,4.21,1.3.84,3.07,1.8,4.03,3.13.78,4.03,1.8.46,3.15,1.3,4.21,3.01,1.15,3.78,2.27.08,3.18.79,4.34,2.85,1.5,3.48,2.71-.3,3.16.26,4.4,2.65,1.84,3.13,3.11-.68,3.1-.28,4.4,2.4,2.14,2.73,3.46-1.06,2.99-.81,4.33,2.13,2.42,2.29,3.77-1.41,2.84-1.33,4.2,1.82,2.65,1.82,4.02Z"/></g><circle cx="217.31" cy="208.85" r="63.62"/><circle class="cls-5" cx="217.31" cy="208.85" r="59.28"/><path class="cls-9" d="m276.59,208.85c0-16.25-6.55-30.97-17.14-41.68l-98.33,60.59c7.89,23.47,30.06,40.38,56.19,40.38,32.74,0,59.28-26.54,59.28-59.28Z"/><circle class="cls-9" cx="217.31" cy="208.85" r="56.01"/><circle class="cls-5" cx="217.31" cy="208.85" r="44.78"/><path d="m177.53,229.42c7.45,14.38,22.46,24.22,39.78,24.22,24.73,0,44.78-20.05,44.78-44.78,0-9.01-2.67-17.39-7.25-24.41l-77.31,44.98Z"/><circle cx="217.31" cy="208.85" r="42.34"/><path class="cls-13" d="m189.48,230.3c0,4.1.58,8.06,1.64,11.82,7.21,5.68,16.29,9.08,26.18,9.08,23.39,0,42.34-18.96,42.34-42.34,0-5.07-.89-9.92-2.52-14.43-6.93-4.71-15.3-7.46-24.31-7.46-23.93,0-43.33,19.4-43.33,43.33Z"/><circle cx="217.31" cy="208.85" r="4.01"/><path class="cls-8" d="m217.31,189.55c-10.66,0-19.3,8.64-19.3,19.3s8.64,19.3,19.3,19.3,19.3-8.64,19.3-19.3-8.64-19.3-19.3-19.3Zm0,37.53c-10.07,0-18.23-8.16-18.23-18.23s8.16-18.23,18.23-18.23,18.23,8.16,18.23,18.23-8.16,18.23-18.23,18.23Z"/><path class="cls-8" d="m217.31,183.93c-13.77,0-24.93,11.16-24.93,24.93s11.16,24.93,24.93,24.93,24.93-11.16,24.93-24.93-11.16-24.93-24.93-24.93Zm0,45.05c-11.11,0-20.12-9.01-20.12-20.12s9.01-20.12,20.12-20.12,20.12,9.01,20.12,20.12-9.01,20.12-20.12,20.12Z"/><path class="cls-8" d="m217.31,168.23c-22.44,0-40.63,18.19-40.63,40.63s18.19,40.63,40.63,40.63,40.63-18.19,40.63-40.63-18.19-40.63-40.63-40.63Zm0,79.37c-21.4,0-38.74-17.35-38.74-38.74s17.35-38.74,38.74-38.74,38.74,17.35,38.74,38.74-17.35,38.74-38.74,38.74Z"/><polygon class="cls-8" points="177.53 260.72 171.2 263.39 156.11 245.6 158.73 239.72 177.53 260.72"/><polygon class="cls-8" points="159.07 238.23 152.22 237.66 147.08 214.91 152.13 210.91 159.07 238.23"/></g><g id="nase"><polygon class="cls-5" points="267.73 264.42 309.8 264.9 310.6 278.04 307.87 281.32 289.12 284.13 269.65 282.12 268.05 273.79 267.73 264.42"/><path class="cls-8" d="m265.73,261.97s.16,12.62,0,14.95c-.16,2.33,1.63,7.53,7.39,7.45,5.77-.08,25.38.08,31.63-.16,6.25-.24,7.29-4.81,7.29-6.81v-15.34l-22.64-3.08-23.67,3Zm38.54,18.71c-4.81.24-28.84.21-30.77.24-2.64.05-4.53-2.64-4.49-4.09.04-1.44,0-10.7,0-10.7h14.72l1.31,2.52h8.41l.96-2.52h14.54v9.98s.12,4.33-4.69,4.57Z"/><circle cx="300.42" cy="273.55" r="4.33"/><circle cx="277.59" cy="273.55" r="4.33"/><polygon class="cls-8" points="304.11 258.97 289.73 257.27 292.23 230.27 304.11 258.97"/><polygon class="cls-8" points="286.51 257.1 278.73 258.35 283.98 246.6 286.51 257.1"/></g><g id="ohren"><polygon class="cls-9" points="432 83.57 438.98 90.46 414.49 148.38 386.51 126.39 432 83.57"/><polygon class="cls-11" points="436.92 91.19 431.08 93.17 402.32 132.07 413.17 140.22 436.92 91.19"/><path class="cls-2" d="m421.67,102.48s6.84-1.76,13.69,2.35c6.84,4.11,10.17,18.77,20.92,23.17"/><path class="cls-11" d="m457.7,128.75c-.35.7-1.03,1.1-1.89.87s-1.98-1.14-1.53-2.15,2.11-1.37,2.87-.82.67,1.83.54,2.11Z"/><path class="cls-3" d="m454.69,126.56s.46.71,6.77,1.59,7.67-.22,7.67-.22"/><path class="cls-3" d="m453.76,127.46s2.35,1.17,3.81,1.91,2.76,1.71,3.78,3.76"/><path class="cls-2" d="m415.02,113.43c8.21,7.58,5.28,21.9,12.12,26s16.78,3.81,27.53,8.21"/><path class="cls-11" d="m456.11,148.4c-.35.7-1.03,1.1-1.89.87s-1.98-1.14-1.53-2.15,2.11-1.37,2.87-.82.67,1.83.54,2.11Z"/><path class="cls-3" d="m448.73,146.04s2.13.2,8.43,1.08,6.16-1.44,6.16-1.44"/><path class="cls-3" d="m450.71,147.31s3.01.49,4.47,1.22,2.24,2.7,1.1,4.69"/><path class="cls-2" d="m417.76,106.82c6.35,4.37,5.67,8.53,11.14,14.34,7.15,7.59,10.95,1.28,17.34,10.98"/><path class="cls-11" d="m447,133.56c-.68.38-1.47.32-2.05-.35s-.98-2.06-.04-2.64,2.52.06,2.84.94-.48,1.89-.74,2.04Z"/><path class="cls-3" d="m442.24,127.44s1.64,1.36,6.35,5.65,3.48,7.13,3.48,7.13"/><path class="cls-3" d="m443.15,129.61s2.21,2.1,3,3.53,3.28,3.88,2.94,6.15"/><polygon class="cls-9" points="163.54 72.97 149.06 82.2 176.85 134.04 208.03 115.37 163.54 72.97"/><polygon class="cls-11" points="200.16 111.71 163.23 76 162.02 82.2 187.14 119.26 200.16 111.71"/><polygon class="cls-9" points="169.89 116.05 191.99 106.06 191.99 111.11 172.11 120.47 169.89 116.05"/><polygon class="cls-9" points="165.71 108.85 185.93 99.91 185.93 104.95 167.92 113.27 165.71 108.85"/><polygon class="cls-9" points="162.02 102.05 179.48 94.26 179.48 99.3 164.24 106.47 162.02 102.05"/><polygon class="cls-9" points="157.76 94.26 173.07 87.6 173.07 92.64 159.98 98.68 157.76 94.26"/><polygon class="cls-9" points="154.66 87.21 166.81 81.75 166.81 86.79 156.88 91.64 154.66 87.21"/></g><g id="schnurhaare"><path d="m129.48,345.47c-.2,0-.41-.04-.6-.13-.76-.33-1.1-1.21-.77-1.97.29-.67,7.62-16.65,49.61-41.61,42.2-25.09,80.91-26.37,81.29-26.38.01,0,.03,0,.04,0,.81,0,1.48.65,1.5,1.46.02.83-.63,1.52-1.46,1.54-.38.01-38.35,1.29-79.84,25.96-40.92,24.33-48.32,40.08-48.39,40.24-.25.56-.8.89-1.37.89Z"/><path class="cls-4" d="m261.65,288.47s-37.82,10.58-57.82,25.25c-19.26,14.14-35.35,41.83-35.35,41.83"/><path class="cls-4" d="m254.71,284.13s-63.81,15.09-87.9,37.84"/><g><path class="cls-11" d="m117.84,346.67s1.77,3.09,2.32,3.6,2.7,2.16,3.43,2.42,3.02.44,3.81-.07,1.83-2.73,1.83-2.73l.59-1.63,1.71-.24,1.58-.55,2.55-2.96s.37-1.14.46-1.17,1.05-.79,1.05-.79l11.06-15.21-3.7-4.08-2.36-.18-3.37,2.58-11.32,8.56-.26.33-1.04.39-1.26,1.08-2.57,2.52s-.26.74-.35,1.25c-.08.45.15,1.32.15,1.32l-1.69.25-1.88,1.1s-.94.98-1.04,1.99c-.11,1.13.29,2.23.29,2.23Z"/><path class="cls-12" d="m125.56,346.06l-1.61.86.35-1.96s-1.38-.61-1.97.02c-.75.8-.19,2.28.83,3s2.38.97,2.86.31c.58-.79-.46-2.24-.46-2.24Z"/><path class="cls-12" d="m126.64,346.06s2.19,2.86.86,4.66-4.83-.22-4.83-.22l.33-.7-1.46-1.53-.9.44s-2.46-3.8-.93-5.08,2.9-.63,3.4-.38,1.62.89,1.62.89c0,0-2.49-1.36-3.47-.1s-.12,3.37,1.32,4.58,3.48,1.5,4.12.76.45-2.52-.05-3.31Z"/><path class="cls-12" d="m141.78,323.14s1.37-1.28,2.82-.64,3.78,2.06,4.08,3.98-.93,2.88-.93,2.88c0,0-7.72,10.65-7.98,10.95s-1.59,2.05-2.02,2.31-1.24.8-1.24.8c0,0,.87-3.02.03-4.99s-3.73-4.3-5.21-4.52-2.06.14-2.06.14l-1.87.26s1.16-1.53,1.97-2.06,9.69-7.09,9.69-7.09c0,0,.55-.17,1.14-.1,1.08.13,1.15.2,1.15.2l.63-.34s-.61-.18-1.08-.24c-.67-.09-1.41.09-1.34.13l1.22-.87s.59-.33,1.04-.23,1.05.2,1.05.2l.74-.48s-.93-.22-1.43-.16-.93.24-.93.24l.51-.37Z"/><path class="cls-12" d="m127.14,334.41s3.82-1.09,6.76,1.99c2.94,3.08,2.61,7.01,2.61,7.01l-.6.45s-.04.94-.7,1.62-2.12,2.3-2.7,2.7-2.41.49-2.41.49l-.09-1.21s-.23-2.85-1.22-3.69-2.5-1.68-2.5-1.68l1.3-1.23s2.16,1.59,2.88,2.57,1.17,2.56.89,3.06-.68.82-.68.82l-.16.7s2.7-1.61,1.68-4.32c-1.03-2.74-1.38-2.62-2.07-3.36-.78-.84-1.3-1.09-2.15-1.49s-2.86-.5-2.86-.5c0,0,2.59-.55,4.62.97s2.75,3.58,3.19,5.09c.4,1.37-1.04,3.19-1.22,3.32s1.17-.14,1.41-.8.81-1.51.33-3.15-1.16-2.97-1.84-3.78-2.27-1.86-3.2-2.18-3.09-.61-3.09-.61l2.07-1.89-1.16,1.54.72.06,1.71-1.6-1.1,1.74.62.24,1.79-1.68-1.09,1.84.54.35,1.84-1.99-1.31,2.24.6.33,1.82-1.5-1.19,1.86.33.53,1.78-1.43-1.17,1.98.42.52,1.71-1.22-1.33,1.57.29.88,1.44-1.52-1,2.08.22,1.08,1.89-1.19-1.76,1.72.13,1.07,1.15-1.29-1.22,2.04s-.29.93-.27.81,1.6-1.88,1.6-1.88c0,0,1.49-1.99.18-4.25s-1.96-3.46-3.27-4.13-2.57-1.5-3.78-1.43-2.34.25-2.34.25l.96-.53Z"/><path class="cls-12" d="m125.32,337.2s-1.06-.11-1.67.37-1.32,1.08-1.32,1.08c0,0,.9-1.16,1.14-1.32s1.85-1.7,1.85-1.7l-.92,1.18.45-.03,1.26-1.44-.81,1.41.56.03-.54.41Z"/><path class="cls-12" d="m130.01,346.17s.1,1.3.09,2.5-.26,2.17-1.19,2.99-1.49,1.44-2.62,1.57c-1.54.17-4.53-1.17-5.74-2.38-1.48-1.48-2.72-4.19-2.72-4.19,0,0,1.94,2.95,3.24,4.19s3.94,2.06,4.89,1.85,1.7-.46,2.26-1.31.79-2.7.46-3.34-2.12-3.62-2.98-4.18-1.6-1.2-2.67-1.55-1.54-.59-2.67-.54c-1.04.05-2.02.82-2.02.82,0,0,1.41-1.53,1.78-1.62s1.49-.95,4.17.13,3.74,1.6,4.47,2.67.91,1.15,1.22,2.39Z"/><path class="cls-12" d="m120.41,348.83l-.32.37s-.65-.92-.8-1.32-.22-.64-.22-.64l.37-.22s.27.62.43.92.54.89.54.89Z"/><path class="cls-12" d="m124.28,351.56l-.04.49s-1.06-.37-1.42-.6-.55-.39-.55-.39l.17-.4s.58.34.88.49.96.4.96.4Z"/><polygon class="cls-12" points="122.61 340.95 123.78 339.51 125.21 339.16 123.71 341.14 122.61 340.95"/></g><g><path class="cls-11" d="m147.75,379.52s2.46,2.58,3.11,2.94,3.13,1.45,3.91,1.53,3.04-.29,3.68-.98,1.13-3.08,1.13-3.08l.19-1.73,1.61-.64,1.4-.91,1.77-3.48s.09-1.2.17-1.24.83-1.02.83-1.02l7.12-17.4-4.57-3.08-2.33.38-2.66,3.31-8.95,11.01-.17.38-.92.62-.97,1.35-1.89,3.06s-.07.78-.04,1.3c.03.46.46,1.24.46,1.24l-1.59.65-1.56,1.51s-.68,1.18-.54,2.18c.16,1.12.82,2.1.82,2.1Z"/><path class="cls-12" d="m155.1,377.09l-1.36,1.22-.13-1.98s-1.49-.26-1.91.49c-.54.95.36,2.26,1.53,2.72s2.54.38,2.86-.38c.38-.9-.98-2.06-.98-2.06Z"/><path class="cls-12" d="m156.15,376.83s2.81,2.26,1.94,4.32-4.74.94-4.74.94l.15-.76-1.78-1.14-.77.65s-3.29-3.1-2.12-4.71,2.67-1.3,3.21-1.18,1.79.48,1.79.48c0,0-2.74-.73-3.4.72s.69,3.31,2.37,4.13,3.74.63,4.18-.24-.17-2.56-.84-3.2Z"/><path class="cls-12" d="m165.4,350.96s1.02-1.57,2.59-1.3,4.16,1.1,4.91,2.89-.22,3.02-.22,3.02c0,0-4.96,12.19-5.15,12.53s-1.06,2.37-1.41,2.72-1.02,1.07-1.02,1.07c0,0,.13-3.14-1.15-4.85s-4.64-3.29-6.14-3.15-1.96.63-1.96.63l-1.75.7s.76-1.76,1.42-2.47,7.72-9.19,7.72-9.19c0,0,.5-.3,1.09-.37,1.08-.14,1.17-.08,1.17-.08l.53-.48s-.63-.03-1.1.02c-.67.07-1.35.43-1.27.45l.97-1.14s.5-.46.96-.48,1.07-.06,1.07-.06l.61-.64s-.95,0-1.43.19-.84.46-.84.46l.41-.48Z"/><path class="cls-12" d="m153.86,365.4s3.45-1.97,7.04.32,4.21,6.18,4.21,6.18l-.47.58s.19.93-.29,1.74-1.51,2.74-1.98,3.27-2.23,1.05-2.23,1.05l-.38-1.15s-.9-2.71-2.06-3.29-2.82-1.04-2.82-1.04l.97-1.5s2.48,1.03,3.41,1.81,1.74,2.21,1.59,2.76-.47.96-.47.96l.02.72s2.24-2.21.6-4.6c-1.65-2.42-1.96-2.21-2.81-2.77-.96-.63-1.52-.75-2.44-.94s-2.9.19-2.9.19c0,0,2.38-1.15,4.72-.15s3.53,2.82,4.31,4.18c.71,1.24-.25,3.35-.39,3.51s1.1-.42,1.18-1.11.42-1.66-.43-3.14-1.83-2.6-2.69-3.24-2.65-1.27-3.63-1.36-3.15.14-3.15.14l1.57-2.33-.76,1.77.71-.11,1.28-1.96-.65,1.95.66.08,1.34-2.06-.62,2.04.61.21,1.32-2.37-.74,2.49.66.18,1.41-1.89-.72,2.09.44.44,1.38-1.81-.67,2.2.53.4,1.37-1.59-.91,1.85.49.78,1.04-1.82-.48,2.26.47,1,1.55-1.61-1.3,2.09.38,1.01.81-1.53-.7,2.27s-.06.97-.07.85,1.11-2.2,1.11-2.2c0,0,.98-2.29-.84-4.17s-2.73-2.89-4.16-3.23-2.85-.85-4.01-.49-2.21.8-2.21.8l.81-.74Z"/><path class="cls-12" d="m152.76,368.54s-1.06.15-1.54.76-1.02,1.37-1.02,1.37c0,0,.6-1.34.79-1.56s1.4-2.09,1.4-2.09l-.61,1.37.43-.14.88-1.7-.45,1.56.55-.1-.42.53Z"/><path class="cls-12" d="m159.45,376.14s.41,1.24.69,2.41.26,2.18-.45,3.19-1.1,1.75-2.17,2.15c-1.45.53-4.68-.06-6.14-.94-1.79-1.09-3.64-3.42-3.64-3.42,0,0,2.59,2.4,4.15,3.3s4.31,1.06,5.19.63,1.54-.85,1.88-1.82.13-2.81-.35-3.35-2.92-3.01-3.88-3.35-1.84-.79-2.96-.87-1.63-.21-2.72.12c-1,.3-1.76,1.27-1.76,1.27,0,0,1.01-1.82,1.34-2s1.22-1.27,4.08-.87c2.82.4,4.01.66,4.98,1.53s1.15.9,1.76,2.03Z"/><path class="cls-12" d="m150.76,381.01l-.22.44s-.85-.74-1.09-1.09-.37-.57-.37-.57l.31-.3s.41.54.63.79.74.73.74.73Z"/><path class="cls-12" d="m155.17,382.74l.08.48s-1.12-.1-1.52-.24-.63-.25-.63-.25l.07-.43s.65.19.97.27,1.03.16,1.03.16Z"/><polygon class="cls-12" points="151.01 372.83 151.81 371.15 153.11 370.47 152.14 372.76 151.01 372.83"/></g><g id="XLR"><polygon class="cls-11" points="137.32 336.71 151.36 325.68 154.03 324.36 154.5 323.74 159.91 322.11 167.03 327.39 168.15 332.01 167.13 332.96 161.52 339.95 155.6 348.11 153.19 351.01 143 348.22 137.32 336.71"/><ellipse class="cls-12" cx="145.42" cy="343.84" rx="6.55" ry="10.81" transform="translate(-212.23 236.8) rotate(-50.41)"/><path class="cls-5" d="m151.71,341.59l1.34,1.84s-1.54,1.73-2.46,2.78c-.87.99-1.63,1.13-2.05.71-.57-.56-.36-1.61.95-2.86s2.22-2.47,2.22-2.47Z"/><path class="cls-5" d="m144.74,336.66l1.95.82s-3.98,4.46-4.9,5.51c-.87.99-1.63,1.13-2.05.71-.57-.56-.36-1.61.95-2.86s4.05-4.18,4.05-4.18Z"/><path class="cls-5" d="m150.18,339.89l1.45,1.75s-4.4,4.56-5.32,5.6c-.87.99-1.63,1.13-2.05.71-.57-.56-.36-1.61.95-2.86s4.97-5.2,4.97-5.2Z"/><path class="cls-12" d="m155.23,348.95l7.77-10.07-.45-1.44.63-.96.53,1.45.97-1.31-.32-1.29.68-.89.42,1.41,1.2-1.44s1.43-4.86-5.46-8.8c-6.89-3.93-9.84.06-9.84.06,0,0,5.85-1.63,9.44.71,3.62,2.36,4.21,4.15,4.21,4.15l-10.92,12.83s.81.96,1.01,2.58.12,3,.12,3Z"/><polygon class="cls-12" points="145.72 335.66 148.13 336.85 149.65 335.47 145.95 333.94 144.53 335.26 145.72 335.66"/><polygon class="cls-12" points="149.89 335.21 152.58 332.89 149.16 331.3 151.09 332.87 149.89 335.21"/><path class="cls-12" d="m154.5,323.74s3.16-.84,7.18,1.85,4.85,5.09,4.85,5.09c0,0,.36,1.33.39,1.62s.13,1.43.13,1.43c0,0,1.65-1.57,2.19-2.45s.06-2,.06-2.29,4.23-7.22,4.8-7.79.38-2.84-1.75-4.03-3.57-1.27-4.32-.95-7.09,4.07-7.5,4.31-1.66,0-2.56.66-3.48,2.54-3.48,2.54Z"/></g><path class="cls-4" d="m318.99,287.77s31.16-4.21,58,9.22,45.69,39.33,45.69,39.33"/><path class="cls-4" d="m323.64,280.41s31.74-3.42,56.98-.02c25.35,3.41,53.38,21.42,53.38,21.42"/><path class="cls-4" d="m322.11,273.47c-7.31.11,14.82,1.12,48.72-.8,23.57-1.33,51.84-8.28,51.84-8.28"/><g id="usb"><path d="m427.7,298.54c-1.87,2.65-.59,5.48-.59,5.48l6.05,3.49,6.12-8.98-5.34-3.66s-3.59-.09-6.23,3.66Z"/><path d="m429.5,305.87c.2-1.63,9.13-8.48,10.43-9.31s2.89.47,4.1,1.02,12.67,6.75,13.5,7.31.37,4.42.37,4.98-10.71,10.99-12.2,11.92-3.54-.93-5.22-2.24-9.59-7.64-10.62-8.48-.47-4.47-.37-5.22Z"/><path class="cls-5" d="m431.77,306.03s8.88,6.81,10.37,7.56,3.79.08,4.35-.6,4.91-4.59,4.91-4.59c0,0-5.77,7.08-7.26,7.14s-12.36-9.5-12.36-9.5Z"/><path class="cls-5" d="m445.92,306.52l-.99.99-1.99-1.49s-2.3.56-3.23,0-1.92-1.18-1.92-1.18l.81-.75s1.24.87,1.68,1.06,1.94.06,1.94.06l-3.45-2.56.51-.56,3.66,2.51s.29-.19.15-.7-.75-.88-.75-.88l.56-.56s1.26.7,1.4,1.21-.23,1.58-.23,1.58l1.85,1.26Z"/><polygon class="cls-5" points="445.92 320.73 457.25 309.74 457.25 305.82 445.92 315.84 445.92 320.73"/><polygon points="454.83 307.83 456.74 308.74 456.74 309.86 446.59 319.5 445.61 318.94 445.61 315.84 454.83 307.83"/><polygon class="cls-5" points="453.45 309.06 453.9 309.28 452.78 310.2 452.38 309.99 453.45 309.06"/><polygon class="cls-5" points="451.42 310.8 451.87 311.02 450.76 311.95 450.35 311.73 451.42 310.8"/><polygon class="cls-5" points="449.49 312.52 449.94 312.73 448.82 313.66 448.42 313.44 449.49 312.52"/><polygon class="cls-5" points="447.56 314.24 448.01 314.46 446.89 315.38 446.49 315.17 447.56 314.24"/></g><g id="rj45"><path d="m407.8,267.19c.08.92,1.46,3.57,5.58,3.37s13.8.01,13.8.01l12.07-2.38-3.1-14.52-11.44,2.57s-11.54,4.85-13.08,5.88-4.05,2.53-3.83,5.07Z"/><path class="cls-5" d="m419.39,265.24l-.65.17s.72,3.58.79,3.95c.11.61.99,1.12.99,1.12h.52s-.98-.56-1.15-1.34-.49-3.9-.49-3.9Z"/><path class="cls-5" d="m421.38,264.83l-.65.17s.86,4,.93,4.36c.11.61.99,1.12.99,1.12h.52s-.98-.56-1.15-1.34-.63-4.31-.63-4.31Z"/><path class="cls-5" d="m417.56,265.59l-.65.17s.58,3.24.64,3.6c.11.61.99,1.12.99,1.12h.52s-.98-.56-1.15-1.34-.35-3.56-.35-3.56Z"/><path class="cls-5" d="m415.63,266.1l-.65.17s.49,2.72.56,3.09c.11.61.99,1.12.99,1.12h.52s-.98-.56-1.15-1.34-.27-3.04-.27-3.04Z"/><path class="cls-5" d="m413.69,266.55l-.65.17s.49,2.37.56,2.74c.11.61.99,1.12.99,1.12h.52s-.98-.56-1.15-1.34-.27-2.69-.27-2.69Z"/><path class="cls-5" d="m418.9,264l-.67.07s-.46-3.43-.52-3.78c-.09-.58.57-1.33.57-1.33l.48-.17s-.74.83-.65,1.57.78,3.63.78,3.63Z"/><path class="cls-5" d="m420.91,263.57l-.67.07s-.47-3.84-.52-4.19c-.09-.58.57-1.33.57-1.33l.48-.17s-.74.83-.65,1.57.78,4.05.78,4.05Z"/><path class="cls-5" d="m417.36,264.36l-.67.07s-.49-3.07-.54-3.42c-.09-.58.57-1.33.57-1.33l.47-.2s-.73.86-.64,1.6.81,3.28.81,3.28Z"/><path class="cls-5" d="m415.54,264.66l-.67.07s-.4-2.59-.46-2.93c-.09-.58.57-1.33.57-1.33l.5-.23s-.76.88-.67,1.63.72,2.79.72,2.79Z"/><path class="cls-5" d="m413.53,265.17l-.67.07s-.29-2.27-.34-2.62c-.09-.58.57-1.33.57-1.33l.48-.17s-.74.83-.65,1.57.61,2.48.61,2.48Z"/><polygon class="cls-5" points="436.38 254.79 445.66 252.39 448.33 263.51 438.8 266.1 436.38 254.79"/><path d="m447.41,255.95l.72,3.53-5.79,1.64-.37-1.16-5.65,1.27s-.41-.48-.22-.75,5.4-1.63,5.4-1.63v-1.53l5.91-1.38Z"/><polygon points="446.46 255.8 445.23 256.18 445.03 255.56 446.31 255.15 446.17 254.58 444.92 254.96 444.74 254.36 446.03 253.99 445.9 253.47 444.61 253.85 444.49 253.24 445.74 252.8 446.46 255.8"/><polygon points="448.22 263.02 447.01 263.38 446.82 262.76 448.07 262.38 447.93 261.81 446.7 262.16 446.53 261.56 447.78 261.21 447.66 260.69 446.39 261.04 446.27 260.44 447.5 260.03 448.22 263.02"/></g></g><g id="Ebene_11"><g><polyline class="cls-4" points="334.92 140.43 315.17 140.43 305.75 152.38 274.48 152.38"/><g><path class="cls-5" d="m334.92,137.95c1.37,0,2.48,1.11,2.48,2.48s-1.11,2.48-2.48,2.48-2.48-1.11-2.48-2.48,1.11-2.48,2.48-2.48Z"/><path d="m334.92,137.62c-1.55,0-2.81,1.26-2.81,2.81s1.26,2.81,2.81,2.81,2.81-1.26,2.81-2.81-1.26-2.81-2.81-2.81,1.55,0,0,0Zm0,4.96c-1.19,0-2.15-.96-2.15-2.15s.96-2.15,2.15-2.15,2.15.96,2.15,2.15-.96,2.15-2.15,2.15,1.19,0,0,0Z"/></g><g><path class="cls-5" d="m274.48,149.9c-1.37,0-2.48,1.11-2.48,2.48s1.11,2.48,2.48,2.48,2.48-1.11,2.48-2.48-1.11-2.48-2.48-2.48Z"/><path d="m274.48,149.57c1.55,0,2.81,1.26,2.81,2.81s-1.26,2.81-2.81,2.81-2.81-1.26-2.81-2.81,1.26-2.81,2.81-2.81-1.55,0,0,0Zm0,4.96c1.19,0,2.15-.96,2.15-2.15s-.96-2.15-2.15-2.15-2.15.96-2.15,2.15.96,2.15,2.15,2.15-1.19,0,0,0Z"/></g></g><g><polyline class="cls-4" points="329.96 149.24 319.99 149.24 308.16 158.95 286.51 158.95"/><g><path class="cls-5" d="m329.96,146.76c1.37,0,2.48,1.11,2.48,2.48s-1.11,2.48-2.48,2.48-2.48-1.11-2.48-2.48,1.11-2.48,2.48-2.48Z"/><path d="m329.96,146.43c-1.55,0-2.81,1.26-2.81,2.81s1.26,2.81,2.81,2.81,2.81-1.26,2.81-2.81-1.26-2.81-2.81-2.81,1.55,0,0,0Zm0,4.96c-1.19,0-2.15-.96-2.15-2.15s.96-2.15,2.15-2.15,2.15.96,2.15,2.15-.96,2.15-2.15,2.15,1.19,0,0,0Z"/></g><g><path class="cls-5" d="m286.51,156.46c-1.37,0-2.48,1.11-2.48,2.48s1.11,2.48,2.48,2.48,2.48-1.11,2.48-2.48-1.11-2.48-2.48-2.48Z"/><path d="m286.51,156.13c1.55,0,2.81,1.26,2.81,2.81s-1.26,2.81-2.81,2.81-2.81-1.26-2.81-2.81,1.26-2.81,2.81-2.81-1.55,0,0,0Zm0,4.96c1.19,0,2.15-.96,2.15-2.15s-.96-2.15-2.15-2.15-2.15.96-2.15,2.15.96,2.15,2.15,2.15-1.19,0,0,0Z"/></g></g><g><line class="cls-4" x1="280.62" y1="141.51" x2="292.41" y2="152.38"/><g><path class="cls-5" d="m278.94,143.34c-1.01-.93-1.07-2.5-.14-3.51.93-1.01,2.5-1.07,3.51-.14,1.01.93,1.07,2.5.14,3.51s-2.5,1.07-3.51.14Z"/><path d="m278.71,143.58c1.14,1.05,2.92.98,3.97-.16,1.05-1.14.98-2.92-.16-3.97-1.14-1.05-2.92-.98-3.97.16-1.05,1.14-.98,2.92.16,3.97,1.14,1.05-1.14-1.05,0,0Zm3.36-3.65c.87.8.93,2.17.12,3.04-.8.87-2.17.93-3.04.12-.87-.8-.93-2.17-.12-3.04.8-.87,2.17-.93,3.04-.12.87.8-.87-.8,0,0Z"/></g></g></g></svg>